<svg xmlns="http://www.w3.org/2000/svg" xmlns:xlink="http://www.w3.org/1999/xlink" width="500" zoomAndPan="magnify" viewBox="0 0 375 374.999991" height="500" preserveAspectRatio="xMidYMid meet" version="1.0"><defs><g/><clipPath id="5da387fd63"><path d="M 131.292969 80.125 L 249 80.125 L 249 197.875 L 131.292969 197.875 Z M 131.292969 80.125 " clip-rule="nonzero"/></clipPath><clipPath id="eabbc73c5b"><path d="M 160 134 L 197 134 L 197 170 L 160 170 Z M 160 134 " clip-rule="nonzero"/></clipPath><clipPath id="56d57046fb"><path d="M 185.691406 129.730469 L 201.421875 146.488281 L 171.636719 174.449219 L 155.90625 157.6875 Z M 185.691406 129.730469 " clip-rule="nonzero"/></clipPath><clipPath id="2cee992335"><path d="M 193.554688 138.109375 C 197.902344 142.738281 197.671875 150.007812 193.042969 154.355469 L 180.054688 166.546875 C 175.425781 170.890625 168.152344 170.660156 163.808594 166.035156 C 159.464844 161.40625 159.695312 154.132812 164.320312 149.789062 L 177.3125 137.59375 C 181.9375 133.25 189.210938 133.480469 193.554688 138.109375 Z M 193.554688 138.109375 " clip-rule="nonzero"/></clipPath><clipPath id="7e57917294"><path d="M 0 0 L 37 0 L 37 36 L 0 36 Z M 0 0 " clip-rule="nonzero"/></clipPath><clipPath id="aa0abdc19b"><path d="M 25.691406 -4.269531 L 41.421875 12.488281 L 11.636719 40.449219 L -4.09375 23.6875 Z M 25.691406 -4.269531 " clip-rule="nonzero"/></clipPath><clipPath id="66b9583ea6"><path d="M 33.554688 4.109375 C 37.902344 8.738281 37.671875 16.007812 33.042969 20.355469 L 20.054688 32.546875 C 15.425781 36.890625 8.152344 36.660156 3.808594 32.035156 C -0.535156 27.40625 -0.304688 20.132812 4.320312 15.789062 L 17.3125 3.59375 C 21.9375 -0.75 29.210938 -0.519531 33.554688 4.109375 Z M 33.554688 4.109375 " clip-rule="nonzero"/></clipPath><clipPath id="26913eabae"><rect x="0" width="37" y="0" height="36"/></clipPath></defs><g clip-path="url(#5da387fd63)"><path fill="#ffffff" d="M 235.738281 80.125 C 216.191406 80.125 189.957031 93.539062 172.339844 116.597656 L 157.738281 116.597656 C 147.1875 116.597656 141.136719 124.476562 136.972656 132.804688 L 131.398438 143.953125 L 157.738281 143.953125 L 171.414062 157.628906 L 185.09375 171.304688 L 185.09375 197.644531 L 196.242188 192.070312 C 204.570312 187.90625 212.445312 181.859375 212.445312 171.304688 L 212.445312 156.703125 C 235.503906 139.085938 248.917969 112.855469 248.917969 93.304688 L 248.917969 80.128906 L 235.738281 80.128906 Z M 212.445312 107.480469 C 217.480469 107.480469 221.5625 111.5625 221.5625 116.597656 C 221.5625 121.632812 217.480469 125.714844 212.445312 125.714844 C 207.410156 125.714844 203.328125 121.632812 203.328125 116.597656 C 203.328125 111.5625 207.410156 107.480469 212.445312 107.480469 Z M 153.179688 162.1875 L 148.621094 166.746094 C 142.035156 173.332031 139.503906 189.542969 139.503906 189.542969 C 139.503906 189.542969 154.984375 187.738281 162.296875 180.425781 L 166.855469 175.863281 Z M 153.179688 162.1875 " fill-opacity="1" fill-rule="nonzero"/></g><g clip-path="url(#eabbc73c5b)"><g clip-path="url(#56d57046fb)"><g clip-path="url(#2cee992335)"><g transform="matrix(1, 0, 0, 1, 160, 134)"><g clip-path="url(#26913eabae)"><g clip-path="url(#7e57917294)"><g clip-path="url(#aa0abdc19b)"><g clip-path="url(#66b9583ea6)"><path fill="#ffffff" d="M 25.691406 -4.269531 L 41.421875 12.488281 L 11.703125 40.386719 L -4.03125 23.628906 Z M 25.691406 -4.269531 " fill-opacity="1" fill-rule="nonzero"/></g></g></g></g></g></g></g></g><g fill="#ffffff" fill-opacity="1"><g transform="translate(96.790691, 244.074829)"><g><path d="M 9.3125 -22.59375 L 9.3125 -16.921875 L 18.484375 -16.921875 L 18.484375 -11.640625 L 9.3125 -11.640625 L 9.3125 -5.484375 L 19.6875 -5.484375 L 19.6875 0 L 2.484375 0 L 2.484375 -28.078125 L 19.6875 -28.078125 L 19.6875 -22.59375 Z M 9.3125 -22.59375 "/></g></g></g><g fill="#ffffff" fill-opacity="1"><g transform="translate(118.428538, 244.074829)"><g><path d="M 30.953125 -22.5625 C 33.734375 -22.5625 35.941406 -21.71875 37.578125 -20.03125 C 39.222656 -18.351562 40.046875 -16.023438 40.046875 -13.046875 L 40.046875 0 L 33.234375 0 L 33.234375 -12.125 C 33.234375 -13.5625 32.851562 -14.671875 32.09375 -15.453125 C 31.332031 -16.242188 30.285156 -16.640625 28.953125 -16.640625 C 27.617188 -16.640625 26.570312 -16.242188 25.8125 -15.453125 C 25.0625 -14.671875 24.6875 -13.5625 24.6875 -12.125 L 24.6875 0 L 17.875 0 L 17.875 -12.125 C 17.875 -13.5625 17.492188 -14.671875 16.734375 -15.453125 C 15.972656 -16.242188 14.925781 -16.640625 13.59375 -16.640625 C 12.257812 -16.640625 11.210938 -16.242188 10.453125 -15.453125 C 9.691406 -14.671875 9.3125 -13.5625 9.3125 -12.125 L 9.3125 0 L 2.484375 0 L 2.484375 -22.3125 L 9.3125 -22.3125 L 9.3125 -19.515625 C 10.007812 -20.453125 10.914062 -21.191406 12.03125 -21.734375 C 13.15625 -22.285156 14.425781 -22.5625 15.84375 -22.5625 C 17.519531 -22.5625 19.015625 -22.203125 20.328125 -21.484375 C 21.648438 -20.765625 22.6875 -19.738281 23.4375 -18.40625 C 24.207031 -19.625 25.257812 -20.617188 26.59375 -21.390625 C 27.925781 -22.171875 29.378906 -22.5625 30.953125 -22.5625 Z M 30.953125 -22.5625 "/></g></g></g><g fill="#ffffff" fill-opacity="1"><g transform="translate(160.784332, 244.074829)"><g><path d="M 9.3125 -19.15625 C 9.976562 -20.195312 10.898438 -21.035156 12.078125 -21.671875 C 13.253906 -22.316406 14.628906 -22.640625 16.203125 -22.640625 C 18.035156 -22.640625 19.695312 -22.171875 21.1875 -21.234375 C 22.6875 -20.304688 23.867188 -18.972656 24.734375 -17.234375 C 25.609375 -15.503906 26.046875 -13.492188 26.046875 -11.203125 C 26.046875 -8.910156 25.609375 -6.890625 24.734375 -5.140625 C 23.867188 -3.390625 22.6875 -2.039062 21.1875 -1.09375 C 19.695312 -0.15625 18.035156 0.3125 16.203125 0.3125 C 14.648438 0.3125 13.28125 -0.00390625 12.09375 -0.640625 C 10.90625 -1.273438 9.976562 -2.101562 9.3125 -3.125 L 9.3125 10.640625 L 2.484375 10.640625 L 2.484375 -22.3125 L 9.3125 -22.3125 Z M 19.078125 -11.203125 C 19.078125 -12.910156 18.601562 -14.25 17.65625 -15.21875 C 16.707031 -16.195312 15.539062 -16.6875 14.15625 -16.6875 C 12.800781 -16.6875 11.648438 -16.191406 10.703125 -15.203125 C 9.753906 -14.210938 9.28125 -12.863281 9.28125 -11.15625 C 9.28125 -9.445312 9.753906 -8.097656 10.703125 -7.109375 C 11.648438 -6.128906 12.800781 -5.640625 14.15625 -5.640625 C 15.519531 -5.640625 16.679688 -6.140625 17.640625 -7.140625 C 18.597656 -8.140625 19.078125 -9.492188 19.078125 -11.203125 Z M 19.078125 -11.203125 "/></g></g></g><g fill="#ffffff" fill-opacity="1"><g transform="translate(187.941629, 244.074829)"><g><path d="M 9.3125 -29.59375 L 9.3125 0 L 2.484375 0 L 2.484375 -29.59375 Z M 9.3125 -29.59375 "/></g></g></g><g fill="#ffffff" fill-opacity="1"><g transform="translate(199.740453, 244.074829)"><g><path d="M 25.28125 -22.3125 L 11.28125 10.59375 L 3.921875 10.59375 L 9.046875 -0.765625 L -0.046875 -22.3125 L 7.59375 -22.3125 L 12.765625 -8.359375 L 17.875 -22.3125 Z M 25.28125 -22.3125 "/></g></g></g><g fill="#ffffff" fill-opacity="1"><g transform="translate(225.017943, 244.074829)"><g><path d="M 15.765625 0.28125 C 13.117188 0.28125 10.695312 -0.332031 8.5 -1.5625 C 6.300781 -2.789062 4.550781 -4.503906 3.25 -6.703125 C 1.957031 -8.898438 1.3125 -11.375 1.3125 -14.125 C 1.3125 -16.863281 1.957031 -19.328125 3.25 -21.515625 C 4.550781 -23.703125 6.300781 -25.410156 8.5 -26.640625 C 10.695312 -27.867188 13.117188 -28.484375 15.765625 -28.484375 C 18.398438 -28.484375 20.816406 -27.867188 23.015625 -26.640625 C 25.210938 -25.410156 26.945312 -23.703125 28.21875 -21.515625 C 29.488281 -19.328125 30.125 -16.863281 30.125 -14.125 C 30.125 -11.375 29.484375 -8.898438 28.203125 -6.703125 C 26.921875 -4.503906 25.1875 -2.789062 23 -1.5625 C 20.8125 -0.332031 18.398438 0.28125 15.765625 0.28125 Z M 15.765625 -5.953125 C 18.003906 -5.953125 19.796875 -6.695312 21.140625 -8.1875 C 22.484375 -9.6875 23.15625 -11.664062 23.15625 -14.125 C 23.15625 -16.601562 22.484375 -18.582031 21.140625 -20.0625 C 19.796875 -21.539062 18.003906 -22.28125 15.765625 -22.28125 C 13.492188 -22.28125 11.679688 -21.546875 10.328125 -20.078125 C 8.984375 -18.609375 8.3125 -16.625 8.3125 -14.125 C 8.3125 -11.644531 8.984375 -9.660156 10.328125 -8.171875 C 11.679688 -6.691406 13.492188 -5.953125 15.765625 -5.953125 Z M 15.765625 -5.953125 "/></g></g></g><g fill="#ffffff" fill-opacity="1"><g transform="translate(256.454816, 244.074829)"><g><path d="M 16.078125 -22.5625 C 18.691406 -22.5625 20.78125 -21.710938 22.34375 -20.015625 C 23.90625 -18.328125 24.6875 -16.003906 24.6875 -13.046875 L 24.6875 0 L 17.875 0 L 17.875 -12.125 C 17.875 -13.613281 17.488281 -14.769531 16.71875 -15.59375 C 15.945312 -16.425781 14.90625 -16.84375 13.59375 -16.84375 C 12.289062 -16.84375 11.25 -16.425781 10.46875 -15.59375 C 9.695312 -14.769531 9.3125 -13.613281 9.3125 -12.125 L 9.3125 0 L 2.484375 0 L 2.484375 -22.3125 L 9.3125 -22.3125 L 9.3125 -19.359375 C 10.007812 -20.347656 10.941406 -21.128906 12.109375 -21.703125 C 13.285156 -22.273438 14.609375 -22.5625 16.078125 -22.5625 Z M 16.078125 -22.5625 "/></g></g></g></svg>